<svg width="207" height="209" viewBox="0 0 207 209" fill="none" xmlns="http://www.w3.org/2000/svg">
<g opacity="0.1">
<path d="M206.348 119.258C199.139 169.658 155.794 208.401 103.401 208.401C51.0076 208.401 7.66321 169.658 0.454086 119.258H61.3657C67.4844 136.57 83.9942 148.973 103.401 148.973C122.808 148.973 139.317 136.57 145.436 119.258H206.348Z" fill="white"/>
<path d="M0.454086 89.5441H61.3657C67.4844 72.2327 83.9942 59.8298 103.401 59.8298C122.808 59.8298 139.317 72.2327 145.436 89.5441H206.348C199.139 39.1443 155.794 0.401245 103.401 0.401245C51.0076 0.401245 7.66321 39.1443 0.454086 89.5441Z" fill="white"/>
<path d="M103.401 129.163C117.077 129.163 128.163 118.077 128.163 104.401C128.163 90.7256 117.077 79.6393 103.401 79.6393C89.7253 79.6393 78.639 90.7256 78.639 104.401C78.639 118.077 89.7253 129.163 103.401 129.163Z" fill="white"/>
</g>
</svg>
