<svg width="56" height="56" viewBox="0 0 56 56" fill="none" xmlns="http://www.w3.org/2000/svg">
<path d="M30.595 3.32825C26.26 2.8901 21.8085 3.57687 17.8315 5.35533C15.7451 6.2821 13.7876 7.49687 12.032 8.95164C11.2242 9.70733 10.3471 10.3966 9.63715 11.2507C7.14193 13.8735 5.3021 17.0907 4.19697 20.5233C2.96299 24.3879 2.70777 28.5541 3.44617 32.5418C4.41131 37.8489 7.1952 42.8076 11.2428 46.4015C16.1825 50.9726 23.0933 53.3036 29.8133 52.8003C34.2796 52.4975 38.6518 50.9603 42.3179 48.4089C44.2233 47.0944 45.9046 45.4821 47.4012 43.7258C50.0278 40.5393 51.8379 36.6907 52.5961 32.6403C53.451 28.1258 53.0297 23.3763 51.3559 19.0919C48.9759 12.9123 43.9818 7.78487 37.8577 5.19287C35.5495 4.21195 33.0915 3.58425 30.595 3.32825ZM37.6049 8.29071C40.7531 9.79225 43.5283 12.0556 45.6295 14.8249C48.1347 18.0975 49.6722 22.0876 50.008 26.1849C45.7126 26.1849 41.4159 26.1849 37.1205 26.1849C36.7067 24.2267 35.6524 22.399 34.121 21.0932C32.5315 19.695 30.4352 18.8852 28.3141 18.8261C26.1646 18.7498 23.9964 19.4538 22.3102 20.7818C20.5795 22.1036 19.3802 24.0655 18.9354 26.1836C14.6375 26.1873 10.3396 26.1836 6.04175 26.1861C6.4729 20.8458 8.98051 15.7147 12.9216 12.0618C16.0375 9.14733 20.0232 7.15348 24.2442 6.43964C28.7465 5.66425 33.4941 6.29933 37.6049 8.29071ZM28.9918 21.6606C30.8428 21.9227 32.5476 23.0366 33.5288 24.6169C34.4902 26.1159 34.7678 28.0236 34.2858 29.7344C33.9042 31.1535 33.0085 32.431 31.8018 33.279C30.5517 34.175 28.9695 34.6021 27.4357 34.4556C25.5798 34.3006 23.8118 33.2963 22.7464 31.7787C21.8308 30.5467 21.4244 28.9701 21.5632 27.4513C21.7205 25.5855 22.7538 23.8181 24.3049 22.7547C25.6479 21.8107 27.3651 21.4107 28.9918 21.6606ZM50.0117 29.8858C49.697 33.6249 48.4023 37.2827 46.2564 40.3732C43.7414 44.0643 40.0568 46.9541 35.8605 48.5295C31.9207 50.0273 27.5435 50.3436 23.4203 49.4735C17.8203 48.3153 12.7568 44.8655 9.61856 40.1196C7.57927 37.0821 6.35892 33.5239 6.03679 29.8919C10.3334 29.8759 14.6313 29.8895 18.9279 29.8846C19.2934 31.6052 20.1495 33.2249 21.3947 34.4778C22.978 36.1012 25.1858 37.1104 27.4593 37.2347C29.5741 37.3652 31.7373 36.7584 33.4471 35.5104C35.3302 34.1824 36.6522 32.1233 37.1242 29.8821C41.4196 29.8883 45.715 29.8821 50.0117 29.8858Z" fill="black"/>
<path d="M28.8803 24.975C28.0193 24.7301 27.0554 24.8704 26.3058 25.3602C25.0557 26.1098 24.4945 27.7824 25.021 29.1338C25.4695 30.3658 26.7369 31.2593 28.0651 31.2138C29.6584 31.2347 31.1129 29.8932 31.2145 28.3141C31.3731 26.8335 30.3348 25.3418 28.8803 24.975Z" fill="black"/>
<path d="M37.6049 8.29068C33.4941 6.29929 28.7465 5.66422 24.2442 6.4396C20.0232 7.15345 16.0375 9.14729 12.9216 12.0618C8.9805 15.7147 6.47289 20.8458 6.04174 26.1861C10.3396 26.1836 14.6375 26.1873 18.9354 26.1836C19.3801 24.0654 20.5794 22.1036 22.3102 20.7818C23.9964 19.4538 26.1646 18.7498 28.3141 18.8261C30.4352 18.8851 32.5315 19.695 34.121 21.0931C35.6524 22.399 36.7067 24.2267 37.1205 26.1848C41.4159 26.1848 45.7125 26.1848 50.0079 26.1848C49.6722 22.0876 48.1347 18.0974 45.6295 14.8248C43.5283 12.0556 40.7531 9.79222 37.6049 8.29068Z" fill="#ED1C24"/>
<path d="M28.9919 21.6605C27.3651 21.4107 25.648 21.8107 24.305 22.7547C22.7538 23.8181 21.7205 25.5854 21.5632 27.4513C21.4244 28.97 21.8308 30.5467 22.7464 31.7787C23.8119 33.2962 25.5798 34.3005 27.4358 34.4556C28.9696 34.602 30.5517 34.175 31.8018 33.279C33.0085 32.431 33.9043 31.1534 34.2859 29.7344C34.7678 28.0236 34.4903 26.1159 33.5289 24.6168C32.5476 23.0365 30.8428 21.9227 28.9919 21.6605ZM28.8804 24.975C30.3349 25.3417 31.3731 26.8334 31.2145 28.314C31.1129 29.8931 29.6584 31.2347 28.0651 31.2137C26.737 31.2593 25.4696 30.3657 25.0211 29.1337C24.4945 27.7824 25.0558 26.1097 26.3059 25.3602C27.0554 24.8704 28.0193 24.7301 28.8804 24.975Z" fill="white"/>
<path d="M50.0117 29.8858C45.7151 29.8821 41.4197 29.8882 37.1243 29.8821C36.6522 32.1233 35.3303 34.1824 33.4471 35.5104C31.7374 36.7584 29.5742 37.3652 27.4593 37.2347C25.1859 37.1104 22.9781 36.1012 21.3947 34.4778C20.1496 33.2248 19.2935 31.6052 18.928 29.8845C14.6314 29.8895 10.3335 29.8759 6.03685 29.8919C6.35897 33.5239 7.57933 37.0821 9.61862 40.1196C12.7568 44.8655 17.8204 48.3153 23.4204 49.4735C27.5436 50.3436 31.9207 50.0273 35.8606 48.5295C40.0568 46.9541 43.7415 44.0642 46.2565 40.3732C48.4023 37.2827 49.697 33.6248 50.0117 29.8858Z" fill="white"/>
</svg>
